<?xml version="1.0" encoding="UTF-8"?>
<svg width="27" height="25" viewBox="0 0 26.48 24.92" fill="none" xmlns="http://www.w3.org/2000/svg">
  <path d="M 12.90 0.01 C 13.39 -0.02 14.07 0.01 14.56 0.04 C 16.60 0.15 18.47 0.54 20.41 1.16 L 20.41 5.53 C 20.10 5.84 19.64 6.24 19.31 6.54 L 10.67 14.50 C 11.39 14.57 11.95 14.65 12.70 14.67 C 15.48 14.74 17.85 14.26 20.41 13.25 C 20.41 14.68 20.39 16.15 20.41 17.57 C 18.28 18.33 15.84 18.67 13.59 18.73 C 10.82 18.74 8.72 18.41 6.07 17.58 C 6.05 16.15 6.07 14.64 6.07 13.21 C 6.68 12.62 7.34 12.03 7.97 11.46 L 14.33 5.61 C 14.80 5.17 15.34 4.65 15.83 4.24 C 15.05 4.15 14.43 4.09 13.65 4.07 C 11.05 4.01 8.47 4.50 6.07 5.49 C 6.06 4.53 6.08 3.56 6.07 2.60 C 6.07 2.12 6.06 1.63 6.07 1.16 C 6.31 1.09 6.58 1.00 6.82 0.93 C 7.17 0.82 7.53 0.73 7.89 0.64 C 9.53 0.24 11.21 0.03 12.90 0.01 Z" fill="rgb(228, 35, 19)" fill-rule="nonzero" />
  <path d="M 0.01 6.22 L 4.07 6.22 C 4.05 7.65 4.06 9.14 4.06 10.57 L 4.07 17.58 C 2.76 17.56 1.32 17.57 0.01 17.58 C -0.01 16.31 0.01 15.01 0.01 13.73 L 0.01 6.22 Z" fill="rgb(228, 35, 19)" fill-rule="nonzero" />
  <path d="M 22.41 6.22 L 26.47 6.22 L 26.47 17.58 C 25.95 17.57 25.40 17.58 24.88 17.58 L 22.41 17.58 L 22.42 11.67 C 22.42 9.87 22.43 8.02 22.41 6.22 Z" fill="rgb(228, 35, 19)" fill-rule="nonzero" />
  <path d="M 0.01 1.16 C 1.34 1.17 2.73 1.16 4.07 1.16 C 4.05 2.49 4.06 3.89 4.07 5.22 C 2.73 5.20 1.34 5.22 0.01 5.22 L 0.01 1.16 Z" fill="rgb(228, 35, 19)" fill-rule="nonzero" />
  <path d="M 22.41 1.16 L 26.47 1.16 L 26.48 5.22 C 26.00 5.21 25.48 5.22 25.00 5.22 L 22.41 5.22 C 22.42 3.87 22.42 2.51 22.41 1.16 Z" fill="rgb(228, 35, 19)" fill-rule="nonzero" />
  <path d="M 19.19 20.81 C 19.51 20.80 19.84 20.80 20.16 20.80 C 20.15 22.17 20.12 23.47 20.17 24.85 C 19.89 24.85 19.61 24.85 19.33 24.85 C 19.36 24.53 19.35 24.21 19.36 23.89 L 19.39 22.04 C 19.39 21.88 19.40 21.71 19.41 21.55 C 19.01 22.67 18.56 23.77 18.05 24.85 L 17.68 24.85 L 17.03 23.35 C 16.75 22.70 16.52 22.18 16.30 21.51 C 16.30 21.61 16.30 21.71 16.31 21.81 C 16.35 22.82 16.32 23.84 16.37 24.85 C 16.12 24.85 15.86 24.85 15.61 24.85 C 15.66 24.38 15.65 23.65 15.64 23.16 C 15.64 22.38 15.65 21.57 15.64 20.80 C 15.94 20.81 16.37 20.80 16.68 20.80 C 16.98 21.42 17.23 22.09 17.51 22.72 C 17.66 23.05 17.83 23.42 17.93 23.76 C 18.29 22.81 18.78 21.74 19.19 20.81 Z" fill="rgb(228, 35, 19)" fill-rule="nonzero" />
  <path d="M 8.05 20.75 C 8.59 20.68 9.35 20.79 9.73 21.22 C 10.02 21.53 10.07 21.86 10.06 22.27 C 9.79 22.29 9.56 22.25 9.26 22.29 C 9.29 21.76 9.06 21.49 8.53 21.43 C 7.70 21.33 7.23 21.69 7.16 22.53 C 7.09 23.32 7.29 24.20 8.23 24.23 C 9.06 24.26 9.25 23.98 9.29 23.22 C 8.96 23.20 8.51 23.22 8.17 23.23 C 8.14 23.23 8.15 23.23 8.12 23.22 C 8.09 23.11 8.10 22.78 8.10 22.65 C 8.65 22.70 9.48 22.66 10.05 22.67 C 10.05 23.76 10.07 24.70 8.74 24.89 C 7.49 25.06 6.47 24.46 6.34 23.15 C 6.22 21.85 6.68 20.89 8.05 20.75 Z" fill="rgb(228, 35, 19)" fill-rule="nonzero" />
  <path d="M 11.63 20.80 C 11.67 20.80 11.70 20.80 11.74 20.81 C 11.81 20.84 12.62 22.65 12.72 22.89 C 13.03 22.19 13.37 21.50 13.69 20.80 C 13.99 20.80 14.30 20.80 14.60 20.81 C 14.26 21.36 13.88 22.05 13.58 22.63 C 12.96 23.80 13.09 23.57 13.10 24.85 C 12.80 24.83 12.57 24.83 12.26 24.85 C 12.28 24.49 12.31 23.99 12.28 23.63 C 12.26 23.51 12.05 23.10 11.98 22.97 C 11.61 22.23 11.21 21.51 10.78 20.81 C 11.05 20.80 11.36 20.80 11.63 20.80 Z" fill="rgb(228, 35, 19)" fill-rule="nonzero" />
</svg>
