<?xml version="1.0" encoding="UTF-8"?>
<svg width="12" height="12" viewBox="0 0 11.43 11.50" fill="none" xmlns="http://www.w3.org/2000/svg">
  <path d="M 10.57 -0.56 C 10.26 -0.88 9.76 -0.88 9.44 -0.57 C 9.12 -0.26 9.12 0.24 9.43 0.56 L 10.00 0.00 L 10.57 -0.56 Z M 11.43 3.50 L 12.23 3.50 L 11.43 3.50 Z M 9.43 6.44 C 9.12 6.76 9.12 7.26 9.44 7.57 C 9.76 7.88 10.26 7.88 10.57 7.56 L 10.00 7.00 L 9.43 6.44 Z M 0.77 6.27 C 0.64 5.85 0.19 5.61 -0.23 5.73 C -0.65 5.86 -0.89 6.31 -0.77 6.73 L 0.00 6.50 L 0.77 6.27 Z M 0.73 11.73 C 0.86 12.15 1.31 12.39 1.73 12.27 C 2.15 12.14 2.39 11.69 2.27 11.27 L 1.50 11.50 L 0.73 11.73 Z M 10.00 0.00 L 9.43 0.56 C 10.20 1.35 10.63 2.40 10.63 3.50 L 11.43 3.50 L 12.23 3.50 C 12.23 1.98 11.63 0.52 10.57 -0.56 L 10.00 0.00 Z M 11.43 3.50 L 10.63 3.50 C 10.63 4.60 10.20 5.65 9.43 6.44 L 10.00 7.00 L 10.57 7.56 C 11.63 6.48 12.23 5.02 12.23 3.50 L 11.43 3.50 Z M 0.00 6.50 L -0.77 6.73 L 0.73 11.73 L 1.50 11.50 L 2.27 11.27 L 0.77 6.27 L 0.00 6.50 Z" fill="rgb(255, 255, 255)" fill-rule="evenodd" />
</svg>
